<svg width="173" height="67" viewBox="0 0 173 67" fill="none" xmlns="http://www.w3.org/2000/svg">
<g clip-path="url(#clip0_197_302)">
<path d="M29.9737 31.0378C29.5542 30.0468 28.855 29.2078 27.9735 28.6119C27.0919 28.0161 26.034 27.6696 24.891 27.6696C23.748 27.6696 22.6901 28.0161 21.8085 28.6119C20.9269 29.2078 20.2277 30.0468 19.8082 31.0378C19.7474 31.1776 19.7231 31.3296 19.6744 31.4756C19.4981 32.0167 19.3765 32.5821 19.3765 33.184C19.3765 33.7859 19.4981 34.3513 19.6744 34.8924C19.7231 35.0384 19.7535 35.1904 19.8082 35.3302C20.4223 36.7894 21.6626 37.902 23.1764 38.4005C23.7176 38.5768 24.283 38.6984 24.8849 38.6984C25.4868 38.6984 26.0522 38.5768 26.5933 38.4005C27.7303 38.0297 28.7091 37.3062 29.3901 36.3577C29.615 36.0415 29.8096 35.695 29.9616 35.3302C30.2413 34.6736 30.3933 33.944 30.3933 33.184C30.3933 32.424 30.2413 31.7005 29.9616 31.0378H29.9737Z" fill="#0058FF"/>
<path d="M46.5901 31.0378C46.1705 30.0468 45.4714 29.2017 44.5837 28.6058C43.7021 28.01 42.6381 27.6635 41.489 27.6635C40.3399 27.6635 39.276 28.01 38.3944 28.6058C37.5128 29.2017 36.8075 30.0468 36.388 31.0378C36.3272 31.1776 36.2968 31.3296 36.2543 31.4755C36.078 32.0166 35.9564 32.5881 35.9564 33.1901C35.9564 33.792 36.078 34.3635 36.2543 34.9046C36.3029 35.0505 36.3333 35.2025 36.388 35.3423C37.0082 36.8076 38.2485 37.9202 39.7684 38.4248C40.3095 38.6011 40.8811 38.7227 41.483 38.7227C42.0849 38.7227 42.6564 38.6011 43.1975 38.4248C44.3405 38.0479 45.3194 37.3304 46.0003 36.3759C46.2253 36.0598 46.4198 35.7132 46.5779 35.3484C46.8576 34.6857 47.0156 33.9561 47.0156 33.1961C47.0156 32.4361 46.8636 31.7066 46.5779 31.0439L46.5901 31.0378Z" fill="#0058FF"/>
<path d="M82.8018 16.598H86.1153L89.7875 22.5077L93.4598 16.598H96.7733V30.5696H93.7212V21.4437L89.7875 27.4141H89.7085L85.8174 21.5045V30.5696H82.8018V16.598Z" fill="#0058FF"/>
<path d="M111.487 16.598H114.818L109.45 27.3958C108.234 29.8339 106.835 30.7884 104.878 30.7884C103.68 30.7884 102.744 30.4723 101.862 29.9676L103.06 27.712C103.619 28.0525 104.179 28.1741 104.714 28.1741C105.249 28.1741 105.911 27.9126 106.471 27.0554L100.883 16.5919H104.318L108.112 23.979L111.487 16.5919V16.598Z" fill="#0058FF"/>
<path d="M128.687 16.6162V30.5878H125.61V19.3886H121.579V20.4465C121.579 28.6726 120.242 30.7701 117.05 30.7701C116.551 30.7701 115.809 30.6911 115.432 30.5878L115.633 28.0524C115.773 28.0707 115.913 28.095 116.113 28.095C117.773 28.095 118.709 27.0371 118.709 19.5102V16.6162H128.693H128.687Z" fill="#0058FF"/>
<path d="M133.167 16.598H136.244V21.3464H139.217C142.451 21.3464 144.33 23.14 144.33 25.8759C144.33 28.7517 142.293 30.5696 139.022 30.5696H133.173V16.598H133.167ZM136.238 23.9851V27.7971H138.974C140.494 27.7971 141.272 27.1405 141.272 25.8394C141.272 24.6599 140.494 23.9851 138.955 23.9851H136.244H136.238Z" fill="#0058FF"/>
<path d="M149.747 19.4312H145.497V16.598H157.08V19.4312H152.83V30.5696H149.753V19.4312H149.747Z" fill="#0058FF"/>
<path d="M172.34 30.5696H169.306V21.4072L163.196 30.5696H160.302V16.598H163.336V25.7604L169.483 16.598H172.34V30.5696Z" fill="#0058FF"/>
<path d="M89.7328 49.7697V48.7544C85.4161 48.7544 82.8018 46.0793 82.8018 42.5469C82.8018 39.0145 85.4404 36.4792 89.7267 36.4792V35.7009H92.8031V36.4792C97.0773 36.4792 99.7281 39.057 99.7281 42.5651C99.7281 46.0732 97.1138 48.7544 92.8031 48.7544V49.7697H89.7328ZM89.7267 39.209C87.4711 39.209 85.9572 40.5466 85.9572 42.6016C85.9572 44.6566 87.4711 46.0124 89.7267 46.0124V39.2029V39.209ZM92.8031 46.0185C95.0588 46.0185 96.5544 44.6991 96.5544 42.6077C96.5544 40.5162 95.0588 39.2151 92.8031 39.2151V46.0245V46.0185Z" fill="#0058FF"/>
<path d="M106.434 35.6949H109.267L115.256 49.7698H112.04L110.763 46.6326H104.853L103.577 49.7698H100.439L106.428 35.6949H106.434ZM109.669 43.921L107.814 39.3915L105.96 43.921H109.675H109.669Z" fill="#0058FF"/>
<path d="M117.414 35.7922H120.491V41.9025L126.157 35.7922H129.872L124.181 41.7201L130.127 49.7638H126.437L122.102 43.8177L120.485 45.4957V49.7699H117.408V35.7983L117.414 35.7922Z" fill="#0058FF"/>
<path d="M135.235 38.6316H130.985V35.7983H142.567V38.6316H138.317V49.7699H135.241V38.6316H135.235Z" fill="#0058FF"/>
<path d="M143.698 42.784C143.698 38.8139 146.829 35.5551 151.146 35.5551C155.462 35.5551 158.551 38.7713 158.551 42.784C158.551 46.7967 155.414 50.013 151.103 50.013C146.792 50.013 143.698 46.7967 143.698 42.784ZM155.341 42.784C155.341 40.3886 153.584 38.3944 151.109 38.3944C148.635 38.3944 146.92 40.3521 146.92 42.784C146.92 45.216 148.677 47.1737 151.152 47.1737C153.626 47.1737 155.347 45.216 155.347 42.784H155.341Z" fill="#0058FF"/>
<path d="M161.281 35.7922H166.99C170.321 35.7922 172.34 37.7682 172.34 40.6622C172.34 43.8967 169.823 45.5747 166.692 45.5747H164.357V49.7638H161.281V35.7922ZM166.795 42.8449C168.333 42.8449 169.233 41.9268 169.233 40.6865C169.233 39.3125 168.273 38.5707 166.74 38.5707H164.363V42.8449H166.795Z" fill="#0058FF"/>
<path d="M66.2037 66.3861H0V0H66.2037V66.3861ZM4.14647 62.2336H62.0512V4.14647H4.14647V62.2336Z" fill="#0058FF"/>
<path d="M54.8161 28.6059C53.9345 29.2017 53.2353 30.0468 52.8158 31.0378C52.755 31.1776 52.7307 31.3296 52.6821 31.4756C52.5058 32.0167 52.3842 32.5882 52.3842 33.1901C52.3842 33.792 52.5058 34.3635 52.6821 34.9046C52.7307 35.0505 52.7611 35.2025 52.8158 35.3424C53.436 36.8015 54.6702 37.9202 56.1902 38.4188C56.7313 38.5951 57.3028 38.7167 57.9047 38.7167V27.6696C56.7617 27.6696 55.6977 28.0161 54.8161 28.6119V28.6059Z" fill="#0058FF"/>
<path d="M13.3879 31.0317C12.9684 30.0407 12.2692 29.1956 11.3876 28.5997C10.506 28.0039 9.44203 27.6573 8.29901 27.6573V38.7045C8.90092 38.7045 9.47243 38.5829 10.0135 38.4066C11.1505 38.0296 12.1354 37.3122 12.8164 36.3576C13.0413 36.0415 13.2359 35.6949 13.3879 35.3301C13.6675 34.6674 13.8195 33.9439 13.8195 33.1779C13.8195 32.4118 13.6675 31.6883 13.3879 31.0256V31.0317Z" fill="#0058FF"/>
</g>
<defs>
<clipPath id="clip0_197_302">
<rect width="172.34" height="66.3861" fill="white"/>
</clipPath>
</defs>
</svg>
